<svg width="27" height="26" viewBox="0 0 27 26" fill="none" xmlns="http://www.w3.org/2000/svg">
<g clip-path="url(#clip0_4_93)">
<rect x="0.333374" width="26" height="26" rx="4" fill="#0F0F0F"/>
<path d="M0.333374 0H26.3334V26H0.333374V0Z" fill="#222222"/>
<path d="M7.50504 11.6892C9.06504 14.755 11.5784 17.2575 14.6442 18.8283L17.0275 16.445C17.32 16.1525 17.7534 16.055 18.1325 16.185C19.3459 16.5858 20.6567 16.8025 22 16.8025C22.5959 16.8025 23.0834 17.29 23.0834 17.8858V21.6667C23.0834 22.2625 22.5959 22.75 22 22.75C11.8275 22.75 3.58337 14.5058 3.58337 4.33333C3.58337 3.7375 4.07087 3.25 4.66671 3.25H8.45837C9.05421 3.25 9.54171 3.7375 9.54171 4.33333C9.54171 5.6875 9.75837 6.9875 10.1592 8.20083C10.2784 8.58 10.1917 9.0025 9.88837 9.30583L7.50504 11.6892Z" fill="#FBFAF8"/>
</g>
<defs>
<clipPath id="clip0_4_93">
<rect x="0.333374" width="26" height="26" rx="4" fill="white"/>
</clipPath>
</defs>
</svg>
